<?xml version="1.0" encoding="UTF-8" standalone="no"?>
<!-- Created with Inkscape (http://www.inkscape.org/) -->

<svg
   xmlns:dc="http://purl.org/dc/elements/1.1/"
   xmlns:cc="http://creativecommons.org/ns#"
   xmlns:rdf="http://www.w3.org/1999/02/22-rdf-syntax-ns#"
   xmlns:svg="http://www.w3.org/2000/svg"
   xmlns="http://www.w3.org/2000/svg"
   xmlns:sodipodi="http://sodipodi.sourceforge.net/DTD/sodipodi-0.dtd"
   xmlns:inkscape="http://www.inkscape.org/namespaces/inkscape"
   width="200"
   height="120"
   viewBox="0 0 199.99998 120"
   id="svg3342"
   version="1.1"
   inkscape:version="0.91 r13725"
   sodipodi:docname="row-down.svg">
  <defs
     id="defs3344" />
  <sodipodi:namedview
     id="base"
     pagecolor="#ffffff"
     bordercolor="#666666"
     borderopacity="1.0"
     inkscape:pageopacity="0.0"
     inkscape:pageshadow="2"
     inkscape:zoom="2.56"
     inkscape:cx="211.42696"
     inkscape:cy="2.8590417"
     inkscape:document-units="px"
     inkscape:current-layer="layer1"
     showgrid="false"
     inkscape:window-width="1920"
     inkscape:window-height="1017"
     inkscape:window-x="-8"
     inkscape:window-y="-8"
     inkscape:window-maximized="1"
     units="px"
     showborder="true"
     inkscape:showpageshadow="false" />
  <metadata
     id="metadata3347">
    <rdf:RDF>
      <cc:Work
         rdf:about="">
        <dc:format>image/svg+xml</dc:format>
        <dc:type
           rdf:resource="http://purl.org/dc/dcmitype/StillImage" />
        <dc:title></dc:title>
      </cc:Work>
    </rdf:RDF>
  </metadata>
  <g
     inkscape:label="Capa 1"
     inkscape:groupmode="layer"
     id="layer1"
     transform="translate(0,-932.36223)">
    <path
       style="fill:#000000;fill-rule:evenodd;stroke:#000000;stroke-width:0.79100609px;stroke-linecap:butt;stroke-linejoin:miter;stroke-opacity:1"
       d="M 99.999989,1051.8038 C 71.113772,1023.0125 42.227547,994.2211 13.341331,965.42972 L 0.96152205,953.09055 c -1.77165572,-1.76584 1.05970365,-4.98304 2.37692265,-7.10735 2.3563081,-3.80007 5.765965,-7.0173 9.5076923,-9.47649 2.374681,-1.56071 5.911734,-5.16356 7.923079,-3.15882 l 9.903846,9.87134 69.326927,69.09917 69.326931,-69.09917 c 0,0 0,0 9.90385,-9.87134 2.01134,-2.00474 5.5484,1.59811 7.92308,3.15882 3.74172,2.45919 7.15138,5.67641 9.50769,9.47649 1.31721,2.1243 4.14857,5.34151 2.37692,7.10735 -12.37981,12.33917 -12.37981,12.33917 -12.37981,12.33917 -28.88621,28.79138 -57.77245,57.58278 -86.658661,86.37408 z"
       id="path3350"
       inkscape:connector-curvature="0"
       sodipodi:nodetypes="ccsaascccsaascc" />
  </g>
</svg>
